<mxfile host="65bd71144e">
    <diagram id="043rKPc76az1Hzljqrns" name="Spring Boot Starter Web">
        <mxGraphModel dx="1912" dy="1056" grid="1" gridSize="10" guides="1" tooltips="1" connect="1" arrows="1" fold="1" page="1" pageScale="1" pageWidth="1169" pageHeight="827" math="0" shadow="0">
            <root>
                <mxCell id="0"/>
                <mxCell id="1" parent="0"/>
                <mxCell id="hR8TivzxOlv2UTyusbYq-1" value="" style="rounded=0;whiteSpace=wrap;html=1;strokeColor=none;fillColor=default;movable=0;resizable=0;rotatable=0;deletable=0;editable=0;locked=1;connectable=0;direction=south;" vertex="1" parent="1">
                    <mxGeometry width="1169.289" height="826.77" as="geometry"/>
                </mxCell>
                <mxCell id="hR8TivzxOlv2UTyusbYq-2" value="s&lt;span style=&quot;background-color: transparent;&quot;&gt;pring-boot-starter-web&lt;/span&gt;" style="rounded=0;whiteSpace=wrap;html=1;sketch=1;curveFitting=1;jiggle=2;shadow=1;fillColor=#d5e8d4;strokeColor=#82b366;fontSize=20;fillStyle=hachure;fontStyle=1" vertex="1" parent="1">
                    <mxGeometry x="790" y="370" width="270" height="60" as="geometry"/>
                </mxCell>
                <mxCell id="hR8TivzxOlv2UTyusbYq-3" value="tomcat" style="rounded=0;whiteSpace=wrap;html=1;sketch=1;curveFitting=1;jiggle=2;shadow=1;fillColor=#ffe6cc;strokeColor=#d79b00;fontSize=20;fillStyle=hachure;fontStyle=1" vertex="1" parent="1">
                    <mxGeometry x="330" y="35" width="270" height="60" as="geometry"/>
                </mxCell>
                <mxCell id="hR8TivzxOlv2UTyusbYq-4" value="web" style="rounded=0;whiteSpace=wrap;html=1;sketch=1;curveFitting=1;jiggle=2;shadow=1;fillColor=#f8cecc;strokeColor=#b85450;fontSize=20;fillStyle=hachure;fontStyle=1" vertex="1" parent="1">
                    <mxGeometry x="330" y="203" width="270" height="60" as="geometry"/>
                </mxCell>
                <mxCell id="hR8TivzxOlv2UTyusbYq-5" value="webmvc" style="rounded=0;whiteSpace=wrap;html=1;sketch=1;curveFitting=1;jiggle=2;shadow=1;fillColor=#008a00;strokeColor=#005700;fontSize=20;fillStyle=hachure;fontStyle=1;fontColor=#000000;" vertex="1" parent="1">
                    <mxGeometry x="330" y="365" width="270" height="60" as="geometry"/>
                </mxCell>
                <mxCell id="hR8TivzxOlv2UTyusbYq-6" value="jackson" style="rounded=0;whiteSpace=wrap;html=1;sketch=1;curveFitting=1;jiggle=2;shadow=1;fillColor=#a20025;strokeColor=#6F0000;fontSize=20;fillStyle=hachure;fontStyle=1;fontColor=#000000;labelBackgroundColor=default;labelBorderColor=none;textShadow=0;" vertex="1" parent="1">
                    <mxGeometry x="330" y="538" width="270" height="60" as="geometry"/>
                </mxCell>
                <mxCell id="hR8TivzxOlv2UTyusbYq-7" value="logging" style="rounded=0;whiteSpace=wrap;html=1;sketch=1;curveFitting=1;jiggle=2;shadow=1;fillColor=#f0a30a;strokeColor=#BD7000;fontSize=20;fillStyle=hachure;fontStyle=1;fontColor=#000000;" vertex="1" parent="1">
                    <mxGeometry x="330" y="705" width="270" height="60" as="geometry"/>
                </mxCell>
                <mxCell id="hR8TivzxOlv2UTyusbYq-8" value="" style="curved=1;endArrow=classic;html=1;exitX=1;exitY=0.5;exitDx=0;exitDy=0;sketch=1;curveFitting=1;jiggle=2;shadow=0;endSize=19.685;entryX=0;entryY=0.5;entryDx=0;entryDy=0;" edge="1" parent="1" source="hR8TivzxOlv2UTyusbYq-3" target="hR8TivzxOlv2UTyusbYq-2">
                    <mxGeometry width="50" height="50" relative="1" as="geometry">
                        <mxPoint x="430" y="330" as="sourcePoint"/>
                        <mxPoint x="480" y="280" as="targetPoint"/>
                    </mxGeometry>
                </mxCell>
                <mxCell id="hR8TivzxOlv2UTyusbYq-9" value="" style="curved=1;endArrow=classic;html=1;exitX=1;exitY=0.5;exitDx=0;exitDy=0;sketch=1;curveFitting=1;jiggle=2;shadow=0;endSize=19.685;entryX=0;entryY=0.5;entryDx=0;entryDy=0;" edge="1" parent="1" source="hR8TivzxOlv2UTyusbYq-4" target="hR8TivzxOlv2UTyusbYq-2">
                    <mxGeometry width="50" height="50" relative="1" as="geometry">
                        <mxPoint x="360" y="160" as="sourcePoint"/>
                        <mxPoint x="800" y="410" as="targetPoint"/>
                    </mxGeometry>
                </mxCell>
                <mxCell id="hR8TivzxOlv2UTyusbYq-10" value="" style="curved=1;endArrow=classic;html=1;exitX=1;exitY=0.5;exitDx=0;exitDy=0;sketch=1;curveFitting=1;jiggle=2;shadow=0;endSize=19.685;entryX=0;entryY=0.5;entryDx=0;entryDy=0;" edge="1" parent="1" source="hR8TivzxOlv2UTyusbYq-5" target="hR8TivzxOlv2UTyusbYq-2">
                    <mxGeometry width="50" height="50" relative="1" as="geometry">
                        <mxPoint x="360" y="270" as="sourcePoint"/>
                        <mxPoint x="810" y="430" as="targetPoint"/>
                    </mxGeometry>
                </mxCell>
                <mxCell id="hR8TivzxOlv2UTyusbYq-11" value="" style="curved=1;endArrow=classic;html=1;exitX=1;exitY=0.5;exitDx=0;exitDy=0;sketch=1;curveFitting=1;jiggle=2;shadow=0;endSize=19.685;entryX=-0.002;entryY=0.479;entryDx=0;entryDy=0;entryPerimeter=0;" edge="1" parent="1" source="hR8TivzxOlv2UTyusbYq-6" target="hR8TivzxOlv2UTyusbYq-2">
                    <mxGeometry width="50" height="50" relative="1" as="geometry">
                        <mxPoint x="360" y="400" as="sourcePoint"/>
                        <mxPoint x="802" y="407" as="targetPoint"/>
                    </mxGeometry>
                </mxCell>
                <mxCell id="hR8TivzxOlv2UTyusbYq-12" value="" style="curved=1;endArrow=classic;html=1;exitX=0.992;exitY=0.62;exitDx=0;exitDy=0;sketch=1;curveFitting=1;jiggle=2;shadow=0;endSize=19.685;entryX=0;entryY=0.5;entryDx=0;entryDy=0;exitPerimeter=0;" edge="1" parent="1" source="hR8TivzxOlv2UTyusbYq-7" target="hR8TivzxOlv2UTyusbYq-2">
                    <mxGeometry width="50" height="50" relative="1" as="geometry">
                        <mxPoint x="370" y="530" as="sourcePoint"/>
                        <mxPoint x="799" y="409" as="targetPoint"/>
                    </mxGeometry>
                </mxCell>
                <mxCell id="hR8TivzxOlv2UTyusbYq-13" value="Starter dependency" style="text;html=1;align=center;verticalAlign=middle;whiteSpace=wrap;rounded=0;fontStyle=3;sketch=1;curveFitting=1;jiggle=2;strokeColor=default;strokeWidth=0.3937;shadow=0;glass=0;dashed=1;dashPattern=12 12;" vertex="1" parent="1">
                    <mxGeometry x="830" y="440" width="190" height="30" as="geometry"/>
                </mxCell>
                <mxCell id="hR8TivzxOlv2UTyusbYq-14" value="Embedded Web server" style="text;html=1;align=center;verticalAlign=middle;whiteSpace=wrap;rounded=0;fontStyle=3;sketch=1;curveFitting=1;jiggle=2;strokeColor=default;strokeWidth=0.3937;shadow=0;glass=0;dashed=1;dashPattern=12 12;" vertex="1" parent="1">
                    <mxGeometry x="90" y="50" width="190" height="30" as="geometry"/>
                </mxCell>
                <mxCell id="hR8TivzxOlv2UTyusbYq-15" value="Handling Web requests" style="text;html=1;align=center;verticalAlign=middle;whiteSpace=wrap;rounded=0;fontStyle=3;sketch=1;curveFitting=1;jiggle=2;strokeColor=default;strokeWidth=0.3937;shadow=0;glass=0;dashed=1;dashPattern=12 12;" vertex="1" parent="1">
                    <mxGeometry x="90" y="218" width="190" height="30" as="geometry"/>
                </mxCell>
                <mxCell id="hR8TivzxOlv2UTyusbYq-16" value="Building APIs" style="text;html=1;align=center;verticalAlign=middle;whiteSpace=wrap;rounded=0;fontStyle=3;sketch=1;curveFitting=1;jiggle=2;strokeColor=default;strokeWidth=0.3937;shadow=0;glass=0;dashed=1;dashPattern=12 12;" vertex="1" parent="1">
                    <mxGeometry x="100" y="380" width="190" height="30" as="geometry"/>
                </mxCell>
                <mxCell id="hR8TivzxOlv2UTyusbYq-17" value="Processing JSON data" style="text;html=1;align=center;verticalAlign=middle;whiteSpace=wrap;rounded=0;fontStyle=3;sketch=1;curveFitting=1;jiggle=2;strokeColor=default;strokeWidth=0.3937;shadow=0;glass=0;dashed=1;dashPattern=12 12;" vertex="1" parent="1">
                    <mxGeometry x="110" y="553" width="190" height="30" as="geometry"/>
                </mxCell>
                <mxCell id="hR8TivzxOlv2UTyusbYq-18" value="Logger functionalities" style="text;html=1;align=center;verticalAlign=middle;whiteSpace=wrap;rounded=0;fontStyle=3;sketch=1;curveFitting=1;jiggle=2;strokeColor=default;strokeWidth=0.3937;shadow=0;glass=0;dashed=1;dashPattern=12 12;" vertex="1" parent="1">
                    <mxGeometry x="110" y="720" width="190" height="30" as="geometry"/>
                </mxCell>
                <mxCell id="kWHA9xPCYuh3L2tjiSDR-1" value="&lt;h1 style=&quot;margin-top: 0px;&quot;&gt;References&lt;/h1&gt;&lt;p&gt;&lt;font style=&quot;font-size: 14px;&quot;&gt;This diagram is entirely based on the content produced by Mosh Hamedani and available at&amp;nbsp;https://www.youtube.com/watch?v=gJrjgg1KVL4&lt;/font&gt;&lt;/p&gt;&lt;p&gt;&lt;font style=&quot;font-size: 14px;&quot;&gt;&lt;br&gt;&lt;/font&gt;&lt;/p&gt;&lt;p&gt;&lt;font style=&quot;font-size: 14px;&quot;&gt;I have only made a static picture of his lesson on a video.&lt;/font&gt;&lt;/p&gt;" style="text;html=1;whiteSpace=wrap;overflow=hidden;rounded=0;fillColor=#f8cecc;strokeColor=#b85450;sketch=1;curveFitting=1;jiggle=2;spacingLeft=7.874;spacing=1.9685;spacingRight=7.874;" vertex="1" parent="1">
                    <mxGeometry x="900" y="20" width="252.39" height="220" as="geometry"/>
                </mxCell>
                <mxCell id="kWHA9xPCYuh3L2tjiSDR-2" value="&lt;h1 style=&quot;margin-top: 0px;&quot;&gt;Role of starter dependency&lt;/h1&gt;&lt;p&gt;&lt;font style=&quot;font-size: 16px;&quot;&gt;Curated collection of libraries and frameworks that are commonly used together. Tested and verified by Spring development team&lt;/font&gt;&lt;/p&gt;" style="text;html=1;whiteSpace=wrap;overflow=hidden;rounded=0;" vertex="1" parent="1">
                    <mxGeometry x="767.5" y="530" width="315" height="150" as="geometry"/>
                </mxCell>
            </root>
        </mxGraphModel>
    </diagram>
    <diagram id="0pBZHF6Dq0JbXCEezqZJ" name="Spring and Spring Boot">
        <mxGraphModel dx="1434" dy="792" grid="1" gridSize="10" guides="1" tooltips="1" connect="1" arrows="1" fold="1" page="1" pageScale="1" pageWidth="827" pageHeight="1169" math="0" shadow="0">
            <root>
                <mxCell id="0"/>
                <mxCell id="1" parent="0"/>
                <mxCell id="4" value="" style="rounded=0;whiteSpace=wrap;html=1;movable=0;resizable=0;rotatable=0;deletable=0;editable=0;locked=1;connectable=0;" parent="1" vertex="1">
                    <mxGeometry width="826.77" height="1169.289" as="geometry"/>
                </mxCell>
                <mxCell id="2" value="Spring Framework" style="rounded=0;whiteSpace=wrap;html=1;sketch=1;curveFitting=1;jiggle=2;fillColor=#dae8fc;strokeColor=#6c8ebf;glass=0;shadow=1;fillStyle=solid;fontSize=20;fontStyle=1" parent="1" vertex="1">
                    <mxGeometry x="298.39" y="40" width="230" height="60" as="geometry"/>
                </mxCell>
                <mxCell id="3" value="A popular framework for building Java Applications" style="text;html=1;align=center;verticalAlign=middle;whiteSpace=wrap;rounded=0;" parent="1" vertex="1">
                    <mxGeometry x="328.39" y="110" width="170" height="30" as="geometry"/>
                </mxCell>
                <mxCell id="5" value="" style="shape=flexArrow;endArrow=classic;html=1;fillColor=#f8cecc;strokeColor=#b85450;width=13.5;endSize=14.165;sketch=1;curveFitting=1;jiggle=2;flowAnimation=0;shadow=0;fillStyle=solid;" parent="1" edge="1">
                    <mxGeometry width="50" height="50" relative="1" as="geometry">
                        <mxPoint x="413.002" y="150" as="sourcePoint"/>
                        <mxPoint x="413.002" y="290" as="targetPoint"/>
                    </mxGeometry>
                </mxCell>
                <mxCell id="8" value="&lt;b&gt;&lt;font style=&quot;font-size: 20px; color: rgb(0, 0, 0);&quot;&gt;Spring Framework&lt;/font&gt;&lt;/b&gt;" style="text;html=1;align=center;verticalAlign=middle;whiteSpace=wrap;rounded=0;fillColor=#dae8fc;strokeColor=#6c8ebf;sketch=1;curveFitting=1;jiggle=2;fillStyle=zigzag-line;strokeWidth=1.1811;perimeterSpacing=12.992099999999999;dashed=1;fontColor=#000000;" parent="1" vertex="1">
                    <mxGeometry x="320.69" y="300" width="185.39" height="70" as="geometry"/>
                </mxCell>
                <mxCell id="9" value="Web" style="rounded=0;whiteSpace=wrap;html=1;sketch=1;curveFitting=1;jiggle=2;fillStyle=solid;shadow=1;fontStyle=1;fillColor=#fff2cc;strokeColor=#d6b656;fontSize=20;" parent="1" vertex="1">
                    <mxGeometry x="200.69" y="400" width="120" height="60" as="geometry"/>
                </mxCell>
                <mxCell id="10" value="Data" style="rounded=0;whiteSpace=wrap;html=1;sketch=1;curveFitting=1;jiggle=2;fillStyle=solid;shadow=1;fontStyle=1;fillColor=#fff2cc;strokeColor=#d6b656;fontSize=20;" parent="1" vertex="1">
                    <mxGeometry x="506.08" y="400" width="120" height="60" as="geometry"/>
                </mxCell>
                <mxCell id="11" value="Aspect-Oriented Programming" style="rounded=0;whiteSpace=wrap;html=1;sketch=1;curveFitting=1;jiggle=2;fillStyle=solid;shadow=1;fontStyle=1;fillColor=#d5e8d4;strokeColor=#82b366;fontSize=20;" parent="1" vertex="1">
                    <mxGeometry x="308.61" y="520" width="200" height="60" as="geometry"/>
                </mxCell>
                <mxCell id="12" value="Core" style="rounded=0;whiteSpace=wrap;html=1;sketch=1;curveFitting=1;jiggle=2;fillStyle=solid;shadow=1;fontStyle=1;fillColor=#a20025;fontColor=#ffffff;strokeColor=#6F0000;fontSize=20;" parent="1" vertex="1">
                    <mxGeometry x="348" y="650" width="120" height="60" as="geometry"/>
                </mxCell>
                <mxCell id="13" value="Test" style="rounded=0;whiteSpace=wrap;html=1;sketch=1;curveFitting=1;jiggle=2;fillStyle=solid;shadow=1;fontStyle=1;fillColor=#0050ef;fontColor=#ffffff;strokeColor=#001DBC;fontSize=20;" parent="1" vertex="1">
                    <mxGeometry x="348" y="790" width="120" height="60" as="geometry"/>
                </mxCell>
                <mxCell id="14" value="&lt;font style=&quot;font-size: 20px;&quot;&gt;Main Modules&lt;/font&gt;" style="text;html=1;align=center;verticalAlign=middle;whiteSpace=wrap;rounded=0;fontStyle=2;sketch=1;curveFitting=1;jiggle=2;strokeColor=default;dashed=1;dashPattern=12 12;" parent="1" vertex="1">
                    <mxGeometry x="580" y="300" width="160" height="50" as="geometry"/>
                </mxCell>
                <mxCell id="15" value="&lt;font style=&quot;font-size: 20px;&quot;&gt;Definition&lt;/font&gt;" style="text;html=1;align=center;verticalAlign=middle;whiteSpace=wrap;rounded=0;fontStyle=2;sketch=1;curveFitting=1;jiggle=2;strokeColor=default;dashed=1;dashPattern=12 12;" parent="1" vertex="1">
                    <mxGeometry x="590" y="40" width="160" height="50" as="geometry"/>
                </mxCell>
                <mxCell id="16" value="Handling dependency injection, managing objects" style="text;html=1;align=center;verticalAlign=middle;whiteSpace=wrap;rounded=0;fontSize=16;fontStyle=2" parent="1" vertex="1">
                    <mxGeometry x="274.61" y="720" width="290" height="50" as="geometry"/>
                </mxCell>
                <mxCell id="17" value="Building Web applications" style="text;html=1;align=center;verticalAlign=middle;whiteSpace=wrap;rounded=0;fontSize=16;fontStyle=2" parent="1" vertex="1">
                    <mxGeometry x="162.69" y="470" width="196" height="30" as="geometry"/>
                </mxCell>
                <mxCell id="18" value="Working with databases" style="text;html=1;align=center;verticalAlign=middle;whiteSpace=wrap;rounded=0;fontSize=16;fontStyle=2" parent="1" vertex="1">
                    <mxGeometry x="468.08" y="470" width="196" height="30" as="geometry"/>
                </mxCell>
                <mxCell id="19" value="Cross-cutting features such as logging or security" style="text;html=1;align=center;verticalAlign=middle;whiteSpace=wrap;rounded=0;fontSize=16;fontStyle=2" parent="1" vertex="1">
                    <mxGeometry x="312.61" y="590" width="196" height="30" as="geometry"/>
                </mxCell>
                <mxCell id="20" value="Testing Spring components" style="text;html=1;align=center;verticalAlign=middle;whiteSpace=wrap;rounded=0;fontSize=16;fontStyle=2" parent="1" vertex="1">
                    <mxGeometry x="263" y="860" width="290" height="30" as="geometry"/>
                </mxCell>
                <mxCell id="21" value="" style="shape=flexArrow;endArrow=classic;html=1;fillColor=#f8cecc;strokeColor=#b85450;width=13.5;endSize=14.165;sketch=1;curveFitting=1;jiggle=2;flowAnimation=0;shadow=0;fillStyle=solid;" parent="1" edge="1">
                    <mxGeometry width="50" height="50" relative="1" as="geometry">
                        <mxPoint x="413.002" y="910" as="sourcePoint"/>
                        <mxPoint x="413" y="1000" as="targetPoint"/>
                    </mxGeometry>
                </mxCell>
                <mxCell id="22" value="Spring Framework" style="rounded=0;whiteSpace=wrap;html=1;sketch=1;curveFitting=1;jiggle=2;fillColor=#dae8fc;strokeColor=#6c8ebf;glass=0;shadow=1;fillStyle=solid;fontSize=20;fontStyle=1" parent="1" vertex="1">
                    <mxGeometry x="299" y="1090" width="230" height="60" as="geometry"/>
                </mxCell>
                <mxCell id="23" value="Spring Boot" style="rounded=0;whiteSpace=wrap;html=1;sketch=1;curveFitting=1;jiggle=2;fillColor=#008a00;strokeColor=#005700;glass=0;shadow=1;fillStyle=solid;fontSize=20;fontStyle=1;fontColor=#ffffff;" parent="1" vertex="1">
                    <mxGeometry x="299" y="1010" width="230" height="60" as="geometry"/>
                </mxCell>
                <mxCell id="24" value="&lt;font style=&quot;font-size: 20px;&quot;&gt;A layer of abstraction on top of Spring Framework&lt;/font&gt;" style="text;html=1;align=center;verticalAlign=middle;whiteSpace=wrap;rounded=0;fontStyle=2;sketch=1;curveFitting=1;jiggle=2;strokeColor=#d79b00;dashed=1;dashPattern=12 12;strokeWidth=0.3937;fillColor=#ffe6cc;fillStyle=hachure;shadow=1;" parent="1" vertex="1">
                    <mxGeometry x="564.61" y="997.5" width="235.39" height="85" as="geometry"/>
                </mxCell>
                <mxCell id="25" value="&lt;font style=&quot;font-size: 20px;&quot;&gt;Simplifies Spring development by providing sensible defaults and&amp;nbsp; ready-to-use-features&lt;/font&gt;" style="text;html=1;align=center;verticalAlign=middle;whiteSpace=wrap;rounded=0;fontStyle=2;sketch=1;curveFitting=1;jiggle=2;strokeColor=#d79b00;dashed=1;dashPattern=12 12;strokeWidth=0.3937;fillColor=#ffe6cc;fillStyle=hachure;shadow=1;" parent="1" vertex="1">
                    <mxGeometry x="27.61" y="983.75" width="235.39" height="112.5" as="geometry"/>
                </mxCell>
                <mxCell id="26" value="&lt;h1 style=&quot;margin-top: 0px;&quot;&gt;References&lt;/h1&gt;&lt;p&gt;This diagram is entirely based on the content produced by Mosh Hamedani and available at&amp;nbsp;https://www.youtube.com/watch?v=gJrjgg1KVL4&lt;/p&gt;&lt;p&gt;&lt;br&gt;&lt;/p&gt;&lt;p&gt;I have only made a static picture of his lesson on a video.&lt;/p&gt;" style="text;html=1;whiteSpace=wrap;overflow=hidden;rounded=0;fillColor=#f8cecc;strokeColor=#b85450;sketch=1;curveFitting=1;jiggle=2;spacingLeft=7.874;spacing=1.9685;spacingRight=7.874;" parent="1" vertex="1">
                    <mxGeometry x="27.61" y="40" width="252.39" height="220" as="geometry"/>
                </mxCell>
            </root>
        </mxGraphModel>
    </diagram>
</mxfile>